<?xml version="1.0" encoding="UTF-8" standalone="no"?>
<!DOCTYPE svg PUBLIC "-//W3C//DTD SVG 1.1//EN"
 "http://www.w3.org/Graphics/SVG/1.1/DTD/svg11.dtd">
<!-- Generated by graphviz version 2.40.1 (20161225.0304)
 -->
<!-- Title: arch Pages: 1 -->
<svg width="2709pt" height="1581pt"
 viewBox="0.00 0.00 2708.59 1581.20" xmlns="http://www.w3.org/2000/svg" xmlns:xlink="http://www.w3.org/1999/xlink">
<g id="graph0" class="graph" transform="scale(1 1) rotate(0) translate(4 1577.2)">
<title>arch</title>
<polygon fill="#ffffff" stroke="transparent" points="-4,4 -4,-1577.2 2704.5909,-1577.2 2704.5909,4 -4,4"/>
<g id="clust1" class="cluster">
<title>cluster_sub1</title>
<polygon fill="none" stroke="#000000" points="38.5909,-868.8 38.5909,-1468.8 672.5909,-1468.8 672.5909,-868.8 38.5909,-868.8"/>
<text text-anchor="middle" x="355.5909" y="-1452.2" font-family="Times,serif" font-size="14.00" fill="#000000">encoder</text>
</g>
<g id="clust2" class="cluster">
<title>cluster_sub1_sub1</title>
<polygon fill="none" stroke="#000000" points="46.5909,-876.8 46.5909,-1436 356.5909,-1436 356.5909,-876.8 46.5909,-876.8"/>
<text text-anchor="middle" x="201.5909" y="-1419.4" font-family="Times,serif" font-size="14.00" fill="#000000">main_path</text>
</g>
<g id="clust3" class="cluster">
<title>cluster_sub1_sub2</title>
<polygon fill="none" stroke="#000000" points="364.5909,-1138.4 364.5909,-1287.2 664.5909,-1287.2 664.5909,-1138.4 364.5909,-1138.4"/>
<text text-anchor="middle" x="514.5909" y="-1270.6" font-family="Times,serif" font-size="14.00" fill="#000000">edge_path</text>
</g>
<g id="clust4" class="cluster">
<title>cluster_sub2</title>
<polygon fill="none" stroke="#000000" points="680.5909,-56 680.5909,-1130.4 1483.5909,-1130.4 1483.5909,-56 680.5909,-56"/>
<text text-anchor="middle" x="1082.0909" y="-1113.8" font-family="Times,serif" font-size="14.00" fill="#000000">decoder</text>
</g>
<g id="clust5" class="cluster">
<title>cluster_sub2_sub1</title>
<polygon fill="none" stroke="#000000" points="688.5909,-64 688.5909,-860.8 998.5909,-860.8 998.5909,-64 688.5909,-64"/>
<text text-anchor="middle" x="843.5909" y="-844.2" font-family="Times,serif" font-size="14.00" fill="#000000">main_path</text>
</g>
<g id="clust6" class="cluster">
<title>cluster_sub2_sub2</title>
<polygon fill="none" stroke="#000000" points="1017.5909,-712 1017.5909,-1097.6 1369.5909,-1097.6 1369.5909,-712 1017.5909,-712"/>
<text text-anchor="middle" x="1193.5909" y="-1081" font-family="Times,serif" font-size="14.00" fill="#000000">edge_path</text>
</g>
<g id="clust7" class="cluster">
<title>cluster_enc_block_s2</title>
<polygon fill="none" stroke="#000000" points="682.5909,-1210.4 682.5909,-1565.2 1237.5909,-1565.2 1237.5909,-1210.4 682.5909,-1210.4"/>
<text text-anchor="middle" x="960.0909" y="-1548.6" font-family="Times,serif" font-size="14.00" fill="#000000">enc_block s=2</text>
</g>
<g id="clust9" class="cluster">
<title>cluster_enc_block_s1</title>
<polygon fill="none" stroke="#000000" points="1256.5909,-1210.4 1256.5909,-1565.2 1604.5909,-1565.2 1604.5909,-1210.4 1256.5909,-1210.4"/>
<text text-anchor="middle" x="1430.5909" y="-1548.6" font-family="Times,serif" font-size="14.00" fill="#000000">enc_block s=1</text>
</g>
<g id="clust10" class="cluster">
<title>cluster_dec_block_s2_type1</title>
<polygon fill="none" stroke="#000000" points="1624.5909,-1210.4 1624.5909,-1565.2 2154.5909,-1565.2 2154.5909,-1210.4 1624.5909,-1210.4"/>
<text text-anchor="middle" x="1889.5909" y="-1548.6" font-family="Times,serif" font-size="14.00" fill="#000000">dec_block_type1 s=2</text>
</g>
<g id="clust12" class="cluster">
<title>cluster_dec_block_s2_type2</title>
<polygon fill="none" stroke="#000000" points="2162.5909,-1138.4 2162.5909,-1565.2 2692.5909,-1565.2 2692.5909,-1138.4 2162.5909,-1138.4"/>
<text text-anchor="middle" x="2427.5909" y="-1548.6" font-family="Times,serif" font-size="14.00" fill="#000000">dec_block_type2 s=2</text>
</g>
<!-- comment_block -->
<g id="node1" class="node">
<title>comment_block</title>
<polygon fill="none" stroke="#ff0000" points="125.2728,-1552.1003 -.091,-1552.1003 -.091,-1476.6997 125.2728,-1476.6997 125.2728,-1552.1003"/>
<text text-anchor="start" x="8" y="-1535.4" font-family="Courier,monospace" font-size="14.00" fill="#000000">c=channel</text>
<text text-anchor="start" x="8" y="-1518.6" font-family="Courier,monospace" font-size="14.00" fill="#000000">k=kernel_size</text>
<text text-anchor="start" x="8" y="-1501.8" font-family="Courier,monospace" font-size="14.00" fill="#000000">s=stride</text>
<text text-anchor="start" x="8" y="-1485" font-family="Courier,monospace" font-size="14.00" fill="#000000">a=act</text>
</g>
<!-- lr_input -->
<g id="node2" class="node">
<title>lr_input</title>
<polygon fill="none" stroke="#ff0000" points="345.5629,-1532.4 161.6189,-1532.4 161.6189,-1496.4 345.5629,-1496.4 345.5629,-1532.4"/>
<text text-anchor="middle" x="253.5909" y="-1510.2" font-family="Courier,monospace" font-size="14.00" fill="#000000">lr_input Nx3x128x128</text>
</g>
<!-- enc_in -->
<g id="node3" class="node">
<title>enc_in</title>
<polygon fill="none" stroke="#ff0000" points="332.8673,-1403.2 174.3145,-1403.2 174.3145,-1367.2 332.8673,-1367.2 332.8673,-1403.2"/>
<text text-anchor="middle" x="253.5909" y="-1381" font-family="Courier,monospace" font-size="14.00" fill="#000000">conv c=64 k=1 s=1</text>
</g>
<!-- lr_input&#45;&gt;enc_in -->
<g id="edge1" class="edge">
<title>lr_input&#45;&gt;enc_in</title>
<path fill="none" stroke="#0000ff" d="M253.5909,-1496.1628C253.5909,-1474.617 253.5909,-1438.5282 253.5909,-1413.3787"/>
<polygon fill="#0000ff" stroke="#0000ff" points="257.091,-1413.3444 253.5909,-1403.3444 250.091,-1413.3444 257.091,-1413.3444"/>
</g>
<!-- enc_b1 -->
<g id="node4" class="node">
<title>enc_b1</title>
<polygon fill="none" stroke="#ff0000" points="337.2658,-1331.2 169.916,-1331.2 169.916,-1295.2 337.2658,-1295.2 337.2658,-1331.2"/>
<text text-anchor="middle" x="253.5909" y="-1309" font-family="Courier,monospace" font-size="14.00" fill="#000000">enc_block c=64 s=1</text>
</g>
<!-- enc_in&#45;&gt;enc_b1 -->
<g id="edge2" class="edge">
<title>enc_in&#45;&gt;enc_b1</title>
<path fill="none" stroke="#0000ff" d="M253.5909,-1367.0314C253.5909,-1359.331 253.5909,-1350.1743 253.5909,-1341.6166"/>
<polygon fill="#0000ff" stroke="#0000ff" points="257.091,-1341.6132 253.5909,-1331.6133 250.091,-1341.6133 257.091,-1341.6132"/>
</g>
<!-- enc_b2 -->
<g id="node5" class="node">
<title>enc_b2</title>
<polygon fill="none" stroke="#ff0000" points="330.1648,-1254.4 155.017,-1254.4 155.017,-1218.4 330.1648,-1218.4 330.1648,-1254.4"/>
<text text-anchor="middle" x="242.5909" y="-1232.2" font-family="Courier,monospace" font-size="14.00" fill="#000000">enc_block c=128 s=2</text>
</g>
<!-- enc_b1&#45;&gt;enc_b2 -->
<g id="edge3" class="edge">
<title>enc_b1&#45;&gt;enc_b2</title>
<path fill="none" stroke="#0000ff" d="M250.9841,-1294.9995C249.6826,-1285.9132 248.0791,-1274.7176 246.6235,-1264.5549"/>
<polygon fill="#0000ff" stroke="#0000ff" points="250.0616,-1263.8726 245.179,-1254.4699 243.1323,-1264.8651 250.0616,-1263.8726"/>
</g>
<!-- enc_edge1 -->
<g id="node8" class="node">
<title>enc_edge1</title>
<polygon fill="none" stroke="#ff0000" points="656.8462,-1254.4 372.3356,-1254.4 372.3356,-1218.4 656.8462,-1218.4 656.8462,-1254.4"/>
<text text-anchor="middle" x="514.5909" y="-1232.2" font-family="Courier,monospace" font-size="14.00" fill="#000000">conv_bn_act c=32 k=3 s=1 a=swish</text>
</g>
<!-- enc_b1&#45;&gt;enc_edge1 -->
<g id="edge8" class="edge">
<title>enc_b1&#45;&gt;enc_edge1</title>
<path fill="none" stroke="#0000ff" d="M335.4982,-1295.1904C345.6714,-1292.6585 355.8983,-1289.9697 365.5909,-1287.2 395.6652,-1278.606 428.6284,-1267.5432 455.887,-1257.9367"/>
<polygon fill="#0000ff" stroke="#0000ff" points="457.4017,-1261.1131 465.6557,-1254.4705 455.0609,-1254.516 457.4017,-1261.1131"/>
</g>
<!-- enc_b3 -->
<g id="node6" class="node">
<title>enc_b3</title>
<polygon fill="none" stroke="#ff0000" points="324.1648,-1182.4 149.017,-1182.4 149.017,-1146.4 324.1648,-1146.4 324.1648,-1182.4"/>
<text text-anchor="middle" x="236.5909" y="-1160.2" font-family="Courier,monospace" font-size="14.00" fill="#000000">enc_block c=256 s=2</text>
</g>
<!-- enc_b2&#45;&gt;enc_b3 -->
<g id="edge4" class="edge">
<title>enc_b2&#45;&gt;enc_b3</title>
<path fill="none" stroke="#0000ff" d="M241.0768,-1218.2314C240.4351,-1210.531 239.6721,-1201.3743 238.959,-1192.8166"/>
<polygon fill="#0000ff" stroke="#0000ff" points="242.4438,-1192.488 238.1253,-1182.8133 235.468,-1193.0694 242.4438,-1192.488"/>
</g>
<!-- enc_b4 -->
<g id="node7" class="node">
<title>enc_b4</title>
<polygon fill="none" stroke="#ff0000" points="312.1648,-1064.8 137.017,-1064.8 137.017,-1028.8 312.1648,-1028.8 312.1648,-1064.8"/>
<text text-anchor="middle" x="224.5909" y="-1042.6" font-family="Courier,monospace" font-size="14.00" fill="#000000">enc_block c=256 s=2</text>
</g>
<!-- enc_b3&#45;&gt;enc_b4 -->
<g id="edge5" class="edge">
<title>enc_b3&#45;&gt;enc_b4</title>
<path fill="none" stroke="#0000ff" d="M234.7422,-1146.2827C232.8099,-1127.3466 229.751,-1097.3692 227.4957,-1075.2666"/>
<polygon fill="#0000ff" stroke="#0000ff" points="230.9586,-1074.7246 226.4615,-1065.1316 223.9948,-1075.4353 230.9586,-1074.7246"/>
</g>
<!-- enc_color1 -->
<g id="node10" class="node">
<title>enc_color1</title>
<polygon fill="none" stroke="#ff0000" points="348.2447,-992.8 54.9371,-992.8 54.9371,-956.8 348.2447,-956.8 348.2447,-992.8"/>
<text text-anchor="middle" x="201.5909" y="-970.6" font-family="Courier,monospace" font-size="14.00" fill="#000000">conv_bn_act c=256 k=3 s=1 a=swish</text>
</g>
<!-- enc_b4&#45;&gt;enc_color1 -->
<g id="edge6" class="edge">
<title>enc_b4&#45;&gt;enc_color1</title>
<path fill="none" stroke="#0000ff" d="M218.787,-1028.6314C216.3001,-1020.8463 213.3378,-1011.5729 210.5784,-1002.9347"/>
<polygon fill="#0000ff" stroke="#0000ff" points="213.85,-1001.674 207.4729,-993.2133 207.1819,-1003.8041 213.85,-1001.674"/>
</g>
<!-- enc_edge2 -->
<g id="node9" class="node">
<title>enc_edge2</title>
<polygon fill="none" stroke="#ff0000" points="645.8532,-1182.4 403.3286,-1182.4 403.3286,-1146.4 645.8532,-1146.4 645.8532,-1182.4"/>
<text text-anchor="middle" x="524.5909" y="-1160.2" font-family="Courier,monospace" font-size="14.00" fill="#000000">conv_act c=1 k=3 s=1 a=tanh</text>
</g>
<!-- enc_edge1&#45;&gt;enc_edge2 -->
<g id="edge9" class="edge">
<title>enc_edge1&#45;&gt;enc_edge2</title>
<path fill="none" stroke="#0000ff" d="M517.1143,-1218.2314C518.1838,-1210.531 519.4556,-1201.3743 520.6441,-1192.8166"/>
<polygon fill="#0000ff" stroke="#0000ff" points="524.1245,-1193.1997 522.0335,-1182.8133 517.191,-1192.2367 524.1245,-1193.1997"/>
</g>
<!-- dec_edge1 -->
<g id="node12" class="node">
<title>dec_edge1</title>
<polygon fill="none" stroke="#ff0000" points="1322.8462,-1064.8 1038.3356,-1064.8 1038.3356,-1028.8 1322.8462,-1028.8 1322.8462,-1064.8"/>
<text text-anchor="middle" x="1180.5909" y="-1042.6" font-family="Courier,monospace" font-size="14.00" fill="#000000">conv_bn_act c=32 k=3 s=1 a=swish</text>
</g>
<!-- enc_edge2&#45;&gt;dec_edge1 -->
<g id="edge25" class="edge">
<title>enc_edge2&#45;&gt;dec_edge1</title>
<path fill="none" stroke="#0000ff" d="M625.295,-1146.3469C745.5008,-1124.7979 945.8329,-1088.8847 1070.1725,-1066.5945"/>
<polygon fill="#0000ff" stroke="#0000ff" points="1070.8785,-1070.0238 1080.104,-1064.8141 1069.6433,-1063.1337 1070.8785,-1070.0238"/>
</g>
<!-- enc_color2 -->
<g id="node11" class="node">
<title>enc_color2</title>
<polygon fill="none" stroke="#ff0000" points="337.2518,-920.8 85.93,-920.8 85.93,-884.8 337.2518,-884.8 337.2518,-920.8"/>
<text text-anchor="middle" x="211.5909" y="-898.6" font-family="Courier,monospace" font-size="14.00" fill="#000000">conv_act c=64 k=3 s=1 a=tanh</text>
</g>
<!-- enc_color1&#45;&gt;enc_color2 -->
<g id="edge7" class="edge">
<title>enc_color1&#45;&gt;enc_color2</title>
<path fill="none" stroke="#0000ff" d="M204.1143,-956.6314C205.1838,-948.931 206.4556,-939.7743 207.6441,-931.2166"/>
<polygon fill="#0000ff" stroke="#0000ff" points="211.1245,-931.5997 209.0335,-921.2133 204.191,-930.6367 211.1245,-931.5997"/>
</g>
<!-- dec_color1 -->
<g id="node17" class="node">
<title>dec_color1</title>
<polygon fill="none" stroke="#ff0000" points="990.2447,-828 696.9371,-828 696.9371,-792 990.2447,-792 990.2447,-828"/>
<text text-anchor="middle" x="843.5909" y="-805.8" font-family="Courier,monospace" font-size="14.00" fill="#000000">conv_bn_act c=256 k=3 s=1 a=swish</text>
</g>
<!-- enc_color2&#45;&gt;dec_color1 -->
<g id="edge14" class="edge">
<title>enc_color2&#45;&gt;dec_color1</title>
<path fill="none" stroke="#0000ff" d="M334.1962,-884.7972C442.3889,-868.9107 599.7269,-845.8079 710.8554,-829.4903"/>
<polygon fill="#0000ff" stroke="#0000ff" points="711.403,-832.9475 720.7885,-828.0318 710.386,-826.0217 711.403,-832.9475"/>
</g>
<!-- dec_edge2 -->
<g id="node13" class="node">
<title>dec_edge2</title>
<polygon fill="none" stroke="#ff0000" points="1335.8462,-992.8 1051.3356,-992.8 1051.3356,-956.8 1335.8462,-956.8 1335.8462,-992.8"/>
<text text-anchor="middle" x="1193.5909" y="-970.6" font-family="Courier,monospace" font-size="14.00" fill="#000000">conv_bn_act c=64 k=3 s=1 a=swish</text>
</g>
<!-- dec_edge1&#45;&gt;dec_edge2 -->
<g id="edge26" class="edge">
<title>dec_edge1&#45;&gt;dec_edge2</title>
<path fill="none" stroke="#0000ff" d="M1183.8713,-1028.6314C1185.2617,-1020.931 1186.915,-1011.7743 1188.4601,-1003.2166"/>
<polygon fill="#0000ff" stroke="#0000ff" points="1191.9337,-1003.6761 1190.2663,-993.2133 1185.0451,-1002.4322 1191.9337,-1003.6761"/>
</g>
<!-- dec_edge3 -->
<g id="node14" class="node">
<title>dec_edge3</title>
<polygon fill="none" stroke="#ff0000" points="1361.2377,-920.8 1025.9441,-920.8 1025.9441,-884.8 1361.2377,-884.8 1361.2377,-920.8"/>
<text text-anchor="middle" x="1193.5909" y="-898.6" font-family="Courier,monospace" font-size="14.00" fill="#000000">conv_bn_act_blur c=128 k=3 s=2 a=swish</text>
</g>
<!-- dec_edge2&#45;&gt;dec_edge3 -->
<g id="edge27" class="edge">
<title>dec_edge2&#45;&gt;dec_edge3</title>
<path fill="none" stroke="#0000ff" d="M1193.5909,-956.6314C1193.5909,-948.931 1193.5909,-939.7743 1193.5909,-931.2166"/>
<polygon fill="#0000ff" stroke="#0000ff" points="1197.091,-931.2132 1193.5909,-921.2133 1190.091,-931.2133 1197.091,-931.2132"/>
</g>
<!-- dec_add_node4 -->
<g id="node28" class="node">
<title>dec_add_node4</title>
<ellipse fill="none" stroke="#ff0000" cx="904.5909" cy="-234" rx="18" ry="18"/>
<text text-anchor="middle" x="904.5909" y="-229.8" font-family="Courier,monospace" font-size="14.00" fill="#000000">+</text>
</g>
<!-- dec_edge2&#45;&gt;dec_add_node4 -->
<g id="edge13" class="edge">
<title>dec_edge2&#45;&gt;dec_add_node4</title>
<path fill="none" stroke="#0000ff" d="M1299.4245,-956.7629C1379.0795,-936.4113 1474.5909,-894.4094 1474.5909,-810 1474.5909,-810 1474.5909,-810 1474.5909,-378 1474.5909,-264.9085 1047.4801,-239.7064 932.6993,-234.9755"/>
<polygon fill="#0000ff" stroke="#0000ff" points="932.7207,-231.4737 922.5913,-234.5793 932.4465,-238.4683 932.7207,-231.4737"/>
</g>
<!-- dec_edge4 -->
<g id="node15" class="node">
<title>dec_edge4</title>
<polygon fill="none" stroke="#ff0000" points="1361.2377,-828 1025.9441,-828 1025.9441,-792 1361.2377,-792 1361.2377,-828"/>
<text text-anchor="middle" x="1193.5909" y="-805.8" font-family="Courier,monospace" font-size="14.00" fill="#000000">conv_bn_act_blur c=256 k=3 s=2 a=swish</text>
</g>
<!-- dec_edge3&#45;&gt;dec_edge4 -->
<g id="edge28" class="edge">
<title>dec_edge3&#45;&gt;dec_edge4</title>
<path fill="none" stroke="#0000ff" d="M1193.5909,-884.4657C1193.5909,-871.3742 1193.5909,-853.508 1193.5909,-838.5573"/>
<polygon fill="#0000ff" stroke="#0000ff" points="1197.091,-838.2962 1193.5909,-828.2962 1190.091,-838.2962 1197.091,-838.2962"/>
</g>
<!-- dec_add_node3 -->
<g id="node27" class="node">
<title>dec_add_node3</title>
<ellipse fill="none" stroke="#ff0000" cx="904.5909" cy="-378" rx="18" ry="18"/>
<text text-anchor="middle" x="904.5909" y="-373.8" font-family="Courier,monospace" font-size="14.00" fill="#000000">+</text>
</g>
<!-- dec_edge3&#45;&gt;dec_add_node3 -->
<g id="edge12" class="edge">
<title>dec_edge3&#45;&gt;dec_add_node3</title>
<path fill="none" stroke="#0000ff" d="M1311.1854,-884.7394C1340.9801,-878.3033 1367.8706,-870.2613 1379.5909,-860.8 1426.4101,-823.0048 1436.5909,-798.1707 1436.5909,-738 1436.5909,-738 1436.5909,-738 1436.5909,-522 1436.5909,-416.6568 1043.0237,-385.9975 932.9109,-379.4811"/>
<polygon fill="#0000ff" stroke="#0000ff" points="932.7794,-375.968 922.5963,-378.893 932.3809,-382.9566 932.7794,-375.968"/>
</g>
<!-- dec_edge5 -->
<g id="node16" class="node">
<title>dec_edge5</title>
<polygon fill="none" stroke="#ff0000" points="1361.2377,-756 1025.9441,-756 1025.9441,-720 1361.2377,-720 1361.2377,-756"/>
<text text-anchor="middle" x="1193.5909" y="-733.8" font-family="Courier,monospace" font-size="14.00" fill="#000000">conv_bn_act_blur c=256 k=3 s=2 a=swish</text>
</g>
<!-- dec_edge4&#45;&gt;dec_edge5 -->
<g id="edge29" class="edge">
<title>dec_edge4&#45;&gt;dec_edge5</title>
<path fill="none" stroke="#0000ff" d="M1193.5909,-791.8314C1193.5909,-784.131 1193.5909,-774.9743 1193.5909,-766.4166"/>
<polygon fill="#0000ff" stroke="#0000ff" points="1197.091,-766.4132 1193.5909,-756.4133 1190.091,-766.4133 1197.091,-766.4132"/>
</g>
<!-- dec_add_node2 -->
<g id="node26" class="node">
<title>dec_add_node2</title>
<ellipse fill="none" stroke="#ff0000" cx="902.5909" cy="-522" rx="18" ry="18"/>
<text text-anchor="middle" x="902.5909" y="-517.8" font-family="Courier,monospace" font-size="14.00" fill="#000000">+</text>
</g>
<!-- dec_edge4&#45;&gt;dec_add_node2 -->
<g id="edge11" class="edge">
<title>dec_edge4&#45;&gt;dec_add_node2</title>
<path fill="none" stroke="#0000ff" d="M1294.4785,-791.9543C1332.0916,-783.002 1368.4098,-770.889 1379.5909,-756 1391.3339,-740.3628 1390.566,-728.1854 1379.5909,-712 1273.5638,-555.6382 1016.1673,-527.9508 930.6989,-523.052"/>
<polygon fill="#0000ff" stroke="#0000ff" points="930.8672,-519.5561 920.7013,-522.5402 930.5093,-526.5469 930.8672,-519.5561"/>
</g>
<!-- dec_add_node1 -->
<g id="node25" class="node">
<title>dec_add_node1</title>
<ellipse fill="none" stroke="#ff0000" cx="902.5909" cy="-666" rx="18" ry="18"/>
<text text-anchor="middle" x="902.5909" y="-661.8" font-family="Courier,monospace" font-size="14.00" fill="#000000">+</text>
</g>
<!-- dec_edge5&#45;&gt;dec_add_node1 -->
<g id="edge10" class="edge">
<title>dec_edge5&#45;&gt;dec_add_node1</title>
<path fill="none" stroke="#0000ff" d="M1120.5349,-719.9243C1058.6321,-704.6081 973.2414,-683.4805 930.0217,-672.787"/>
<polygon fill="#0000ff" stroke="#0000ff" points="930.7758,-669.3681 920.2279,-670.3638 929.0945,-676.1632 930.7758,-669.3681"/>
</g>
<!-- dec_color2 -->
<g id="node18" class="node">
<title>dec_color2</title>
<polygon fill="none" stroke="#ff0000" points="990.2447,-756 696.9371,-756 696.9371,-720 990.2447,-720 990.2447,-756"/>
<text text-anchor="middle" x="843.5909" y="-733.8" font-family="Courier,monospace" font-size="14.00" fill="#000000">conv_bn_act c=256 k=3 s=1 a=swish</text>
</g>
<!-- dec_color1&#45;&gt;dec_color2 -->
<g id="edge15" class="edge">
<title>dec_color1&#45;&gt;dec_color2</title>
<path fill="none" stroke="#0000ff" d="M843.5909,-791.8314C843.5909,-784.131 843.5909,-774.9743 843.5909,-766.4166"/>
<polygon fill="#0000ff" stroke="#0000ff" points="847.091,-766.4132 843.5909,-756.4133 840.091,-766.4133 847.091,-766.4132"/>
</g>
<!-- dec_color2&#45;&gt;dec_add_node1 -->
<g id="edge16" class="edge">
<title>dec_color2&#45;&gt;dec_add_node1</title>
<path fill="none" stroke="#0000ff" d="M858.4791,-719.8314C866.4523,-710.1014 876.3306,-698.0464 884.7168,-687.8125"/>
<polygon fill="#0000ff" stroke="#0000ff" points="887.4264,-690.0279 891.0575,-680.0747 882.0121,-685.5911 887.4264,-690.0279"/>
</g>
<!-- dec_b1 -->
<g id="node19" class="node">
<title>dec_b1</title>
<polygon fill="none" stroke="#ff0000" points="990.1648,-612 815.017,-612 815.017,-576 990.1648,-576 990.1648,-612"/>
<text text-anchor="middle" x="902.5909" y="-589.8" font-family="Courier,monospace" font-size="14.00" fill="#000000">dec_block c=256 s=2</text>
</g>
<!-- dec_b1&#45;&gt;dec_add_node2 -->
<g id="edge18" class="edge">
<title>dec_b1&#45;&gt;dec_add_node2</title>
<path fill="none" stroke="#0000ff" d="M902.5909,-575.8314C902.5909,-568.131 902.5909,-558.9743 902.5909,-550.4166"/>
<polygon fill="#0000ff" stroke="#0000ff" points="906.091,-550.4132 902.5909,-540.4133 899.091,-550.4133 906.091,-550.4132"/>
</g>
<!-- dec_b2 -->
<g id="node20" class="node">
<title>dec_b2</title>
<polygon fill="none" stroke="#ff0000" points="990.1648,-468 815.017,-468 815.017,-432 990.1648,-432 990.1648,-468"/>
<text text-anchor="middle" x="902.5909" y="-445.8" font-family="Courier,monospace" font-size="14.00" fill="#000000">dec_block c=128 s=2</text>
</g>
<!-- dec_b2&#45;&gt;dec_add_node3 -->
<g id="edge20" class="edge">
<title>dec_b2&#45;&gt;dec_add_node3</title>
<path fill="none" stroke="#0000ff" d="M903.0956,-431.8314C903.3095,-424.131 903.5638,-414.9743 903.8015,-406.4166"/>
<polygon fill="#0000ff" stroke="#0000ff" points="907.3003,-406.5066 904.0794,-396.4133 900.303,-406.3122 907.3003,-406.5066"/>
</g>
<!-- dec_b3 -->
<g id="node21" class="node">
<title>dec_b3</title>
<polygon fill="none" stroke="#ff0000" points="988.2658,-324 820.916,-324 820.916,-288 988.2658,-288 988.2658,-324"/>
<text text-anchor="middle" x="904.5909" y="-301.8" font-family="Courier,monospace" font-size="14.00" fill="#000000">dec_block c=64 s=2</text>
</g>
<!-- dec_b3&#45;&gt;dec_add_node4 -->
<g id="edge22" class="edge">
<title>dec_b3&#45;&gt;dec_add_node4</title>
<path fill="none" stroke="#0000ff" d="M904.5909,-287.8314C904.5909,-280.131 904.5909,-270.9743 904.5909,-262.4166"/>
<polygon fill="#0000ff" stroke="#0000ff" points="908.091,-262.4132 904.5909,-252.4133 901.091,-262.4133 908.091,-262.4132"/>
</g>
<!-- dec_b4 -->
<g id="node22" class="node">
<title>dec_b4</title>
<polygon fill="none" stroke="#ff0000" points="972.2658,-180 804.916,-180 804.916,-144 972.2658,-144 972.2658,-180"/>
<text text-anchor="middle" x="888.5909" y="-157.8" font-family="Courier,monospace" font-size="14.00" fill="#000000">dec_block c=32 s=2</text>
</g>
<!-- dec_out -->
<g id="node23" class="node">
<title>dec_out</title>
<polygon fill="none" stroke="#ff0000" points="990.8532,-108 748.3286,-108 748.3286,-72 990.8532,-72 990.8532,-108"/>
<text text-anchor="middle" x="869.5909" y="-85.8" font-family="Courier,monospace" font-size="14.00" fill="#000000">conv_act c=3 k=1 s=1 a=tanh</text>
</g>
<!-- dec_b4&#45;&gt;dec_out -->
<g id="edge24" class="edge">
<title>dec_b4&#45;&gt;dec_out</title>
<path fill="none" stroke="#0000ff" d="M883.7964,-143.8314C881.742,-136.0463 879.2949,-126.7729 877.0153,-118.1347"/>
<polygon fill="#0000ff" stroke="#0000ff" points="880.3857,-117.1892 874.45,-108.4133 873.6174,-118.9753 880.3857,-117.1892"/>
</g>
<!-- hr_output -->
<g id="node24" class="node">
<title>hr_output</title>
<polygon fill="none" stroke="#ff0000" points="965.9619,-36 773.2199,-36 773.2199,0 965.9619,0 965.9619,-36"/>
<text text-anchor="middle" x="869.5909" y="-13.8" font-family="Courier,monospace" font-size="14.00" fill="#000000">hr_output Nx3x256x256</text>
</g>
<!-- dec_out&#45;&gt;hr_output -->
<g id="edge30" class="edge">
<title>dec_out&#45;&gt;hr_output</title>
<path fill="none" stroke="#0000ff" d="M869.5909,-71.8314C869.5909,-64.131 869.5909,-54.9743 869.5909,-46.4166"/>
<polygon fill="#0000ff" stroke="#0000ff" points="873.091,-46.4132 869.5909,-36.4133 866.091,-46.4133 873.091,-46.4132"/>
</g>
<!-- dec_add_node1&#45;&gt;dec_b1 -->
<g id="edge17" class="edge">
<title>dec_add_node1&#45;&gt;dec_b1</title>
<path fill="none" stroke="#0000ff" d="M902.5909,-647.8314C902.5909,-640.131 902.5909,-630.9743 902.5909,-622.4166"/>
<polygon fill="#0000ff" stroke="#0000ff" points="906.091,-622.4132 902.5909,-612.4133 899.091,-622.4133 906.091,-622.4132"/>
</g>
<!-- dec_add_node2&#45;&gt;dec_b2 -->
<g id="edge19" class="edge">
<title>dec_add_node2&#45;&gt;dec_b2</title>
<path fill="none" stroke="#0000ff" d="M902.5909,-503.8314C902.5909,-496.131 902.5909,-486.9743 902.5909,-478.4166"/>
<polygon fill="#0000ff" stroke="#0000ff" points="906.091,-478.4132 902.5909,-468.4133 899.091,-478.4133 906.091,-478.4132"/>
</g>
<!-- dec_add_node3&#45;&gt;dec_b3 -->
<g id="edge21" class="edge">
<title>dec_add_node3&#45;&gt;dec_b3</title>
<path fill="none" stroke="#0000ff" d="M904.5909,-359.8314C904.5909,-352.131 904.5909,-342.9743 904.5909,-334.4166"/>
<polygon fill="#0000ff" stroke="#0000ff" points="908.091,-334.4132 904.5909,-324.4133 901.091,-334.4133 908.091,-334.4132"/>
</g>
<!-- dec_add_node4&#45;&gt;dec_b4 -->
<g id="edge23" class="edge">
<title>dec_add_node4&#45;&gt;dec_b4</title>
<path fill="none" stroke="#0000ff" d="M900.6358,-216.2022C898.8799,-208.3005 896.7711,-198.811 894.8122,-189.9959"/>
<polygon fill="#0000ff" stroke="#0000ff" points="898.1976,-189.0957 892.6116,-180.0931 891.3643,-190.6143 898.1976,-189.0957"/>
</g>
<!-- enc_block_s2_tensor_in -->
<g id="node29" class="node">
<title>enc_block_s2_tensor_in</title>
<polygon fill="none" stroke="#ff0000" points="991.8673,-1532.4 833.3145,-1532.4 833.3145,-1496.4 991.8673,-1496.4 991.8673,-1532.4"/>
<text text-anchor="middle" x="912.5909" y="-1510.2" font-family="Courier,monospace" font-size="14.00" fill="#000000">tensor_in NxCxHxW</text>
</g>
<!-- enc_block_s2_skip1 -->
<g id="node30" class="node">
<title>enc_block_s2_skip1</title>
<polygon fill="none" stroke="#ff0000" points="900.2588,-1331.2 690.923,-1331.2 690.923,-1295.2 900.2588,-1295.2 900.2588,-1331.2"/>
<text text-anchor="middle" x="795.5909" y="-1309" font-family="Courier,monospace" font-size="14.00" fill="#000000">conv_blur c=C*2 k=2 s=2</text>
</g>
<!-- enc_block_s2_tensor_in&#45;&gt;enc_block_s2_skip1 -->
<g id="edge31" class="edge">
<title>enc_block_s2_tensor_in&#45;&gt;enc_block_s2_skip1</title>
<path fill="none" stroke="#0000ff" d="M886.8115,-1496.3069C877.3074,-1488.662 867.0508,-1479.134 859.5909,-1468.8 830.7421,-1428.8369 812.1185,-1373.9543 802.7741,-1341.1823"/>
<polygon fill="#0000ff" stroke="#0000ff" points="806.0993,-1340.0745 800.065,-1331.366 799.3515,-1341.9367 806.0993,-1340.0745"/>
</g>
<!-- enc_block_s2_conv1 -->
<g id="node31" class="node">
<title>enc_block_s2_conv1</title>
<polygon fill="none" stroke="#ff0000" points="1213.2377,-1403.2 877.9441,-1403.2 877.9441,-1367.2 1213.2377,-1367.2 1213.2377,-1403.2"/>
<text text-anchor="middle" x="1045.5909" y="-1381" font-family="Courier,monospace" font-size="14.00" fill="#000000">conv_bn_act_blur c=C*2 k=3 s=2 a=swish</text>
</g>
<!-- enc_block_s2_tensor_in&#45;&gt;enc_block_s2_conv1 -->
<g id="edge32" class="edge">
<title>enc_block_s2_tensor_in&#45;&gt;enc_block_s2_conv1</title>
<path fill="none" stroke="#0000ff" d="M931.3645,-1496.1628C954.4351,-1473.7513 993.7036,-1435.6048 1019.6477,-1410.4019"/>
<polygon fill="#0000ff" stroke="#0000ff" points="1022.1788,-1412.8228 1026.9128,-1403.3444 1017.3013,-1407.8018 1022.1788,-1412.8228"/>
</g>
<!-- enc_block_s2_tensor_out -->
<g id="node33" class="node">
<title>enc_block_s2_tensor_out</title>
<polygon fill="none" stroke="#ff0000" points="1050.1577,-1254.4 833.0241,-1254.4 833.0241,-1218.4 1050.1577,-1218.4 1050.1577,-1254.4"/>
<text text-anchor="middle" x="941.5909" y="-1232.2" font-family="Courier,monospace" font-size="14.00" fill="#000000">tensor_out NxC*2xH/2xW/2</text>
</g>
<!-- enc_block_s2_skip1&#45;&gt;enc_block_s2_tensor_out -->
<g id="edge33" class="edge">
<title>enc_block_s2_skip1&#45;&gt;enc_block_s2_tensor_out</title>
<path fill="none" stroke="#0000ff" d="M829.8214,-1295.1938C850.2497,-1284.448 876.3841,-1270.7006 898.2443,-1259.2015"/>
<polygon fill="#0000ff" stroke="#0000ff" points="900.1014,-1262.1794 907.3222,-1254.4263 896.8425,-1255.9842 900.1014,-1262.1794"/>
</g>
<!-- enc_block_s2_conv2 -->
<g id="node32" class="node">
<title>enc_block_s2_conv2</title>
<polygon fill="none" stroke="#ff0000" points="1229.2447,-1331.2 935.9371,-1331.2 935.9371,-1295.2 1229.2447,-1295.2 1229.2447,-1331.2"/>
<text text-anchor="middle" x="1082.5909" y="-1309" font-family="Courier,monospace" font-size="14.00" fill="#000000">conv_bn_act c=C*2 k=3 s=1 a=swish</text>
</g>
<!-- enc_block_s2_conv1&#45;&gt;enc_block_s2_conv2 -->
<g id="edge34" class="edge">
<title>enc_block_s2_conv1&#45;&gt;enc_block_s2_conv2</title>
<path fill="none" stroke="#0000ff" d="M1054.9276,-1367.0314C1059.0152,-1359.0771 1063.9013,-1349.569 1068.4218,-1340.7723"/>
<polygon fill="#0000ff" stroke="#0000ff" points="1071.6708,-1342.1074 1073.1285,-1331.6133 1065.4448,-1338.9078 1071.6708,-1342.1074"/>
</g>
<!-- enc_block_s2_conv2&#45;&gt;enc_block_s2_tensor_out -->
<g id="edge35" class="edge">
<title>enc_block_s2_conv2&#45;&gt;enc_block_s2_tensor_out</title>
<path fill="none" stroke="#0000ff" d="M1049.5327,-1295.1938C1029.963,-1284.5346 1004.971,-1270.9219 983.9642,-1259.4799"/>
<polygon fill="#0000ff" stroke="#0000ff" points="985.3866,-1256.2692 974.9306,-1254.5595 982.0382,-1262.4165 985.3866,-1256.2692"/>
</g>
<!-- enc_block_s1_tensor_in -->
<g id="node34" class="node">
<title>enc_block_s1_tensor_in</title>
<polygon fill="none" stroke="#ff0000" points="1543.8673,-1532.4 1385.3145,-1532.4 1385.3145,-1496.4 1543.8673,-1496.4 1543.8673,-1532.4"/>
<text text-anchor="middle" x="1464.5909" y="-1510.2" font-family="Courier,monospace" font-size="14.00" fill="#000000">tensor_in NxCxHxW</text>
</g>
<!-- enc_block_s1_conv1 -->
<g id="node35" class="node">
<title>enc_block_s1_conv1</title>
<polygon fill="none" stroke="#ff0000" points="1558.2447,-1403.2 1264.9371,-1403.2 1264.9371,-1367.2 1558.2447,-1367.2 1558.2447,-1403.2"/>
<text text-anchor="middle" x="1411.5909" y="-1381" font-family="Courier,monospace" font-size="14.00" fill="#000000">conv_bn_act c=C*2 k=3 s=1 a=swish</text>
</g>
<!-- enc_block_s1_tensor_in&#45;&gt;enc_block_s1_conv1 -->
<g id="edge37" class="edge">
<title>enc_block_s1_tensor_in&#45;&gt;enc_block_s1_conv1</title>
<path fill="none" stroke="#0000ff" d="M1457.1097,-1496.1628C1448.1923,-1474.4246 1433.2022,-1437.8826 1422.875,-1412.7077"/>
<polygon fill="#0000ff" stroke="#0000ff" points="1426.0675,-1411.2679 1419.034,-1403.3444 1419.5912,-1413.9246 1426.0675,-1411.2679"/>
</g>
<!-- enc_block_s1_tensor_out -->
<g id="node37" class="node">
<title>enc_block_s1_tensor_out</title>
<polygon fill="none" stroke="#ff0000" points="1545.2658,-1254.4 1377.916,-1254.4 1377.916,-1218.4 1545.2658,-1218.4 1545.2658,-1254.4"/>
<text text-anchor="middle" x="1461.5909" y="-1232.2" font-family="Courier,monospace" font-size="14.00" fill="#000000">tensor_out NxCxHxW</text>
</g>
<!-- enc_block_s1_tensor_in&#45;&gt;enc_block_s1_tensor_out -->
<g id="edge36" class="edge">
<title>enc_block_s1_tensor_in&#45;&gt;enc_block_s1_tensor_out</title>
<path fill="none" stroke="#0000ff" d="M1543.3432,-1496.3353C1556.4715,-1489.8018 1568.4479,-1480.9074 1576.5909,-1468.8 1619.6501,-1404.7775 1616.8581,-1361.0144 1576.5909,-1295.2 1566.9141,-1279.3839 1551.4908,-1267.6504 1535.0427,-1259.0123"/>
<polygon fill="#0000ff" stroke="#0000ff" points="1536.3525,-1255.7572 1525.8295,-1254.5256 1533.2876,-1262.0506 1536.3525,-1255.7572"/>
</g>
<!-- enc_block_s1_conv2 -->
<g id="node36" class="node">
<title>enc_block_s1_conv2</title>
<polygon fill="none" stroke="#ff0000" points="1558.2447,-1331.2 1264.9371,-1331.2 1264.9371,-1295.2 1558.2447,-1295.2 1558.2447,-1331.2"/>
<text text-anchor="middle" x="1411.5909" y="-1309" font-family="Courier,monospace" font-size="14.00" fill="#000000">conv_bn_act c=C*2 k=3 s=1 a=swish</text>
</g>
<!-- enc_block_s1_conv1&#45;&gt;enc_block_s1_conv2 -->
<g id="edge38" class="edge">
<title>enc_block_s1_conv1&#45;&gt;enc_block_s1_conv2</title>
<path fill="none" stroke="#0000ff" d="M1411.5909,-1367.0314C1411.5909,-1359.331 1411.5909,-1350.1743 1411.5909,-1341.6166"/>
<polygon fill="#0000ff" stroke="#0000ff" points="1415.091,-1341.6132 1411.5909,-1331.6133 1408.091,-1341.6133 1415.091,-1341.6132"/>
</g>
<!-- enc_block_s1_conv2&#45;&gt;enc_block_s1_tensor_out -->
<g id="edge39" class="edge">
<title>enc_block_s1_conv2&#45;&gt;enc_block_s1_tensor_out</title>
<path fill="none" stroke="#0000ff" d="M1423.4402,-1294.9995C1429.6671,-1285.435 1437.4156,-1273.5333 1444.2997,-1262.9593"/>
<polygon fill="#0000ff" stroke="#0000ff" points="1447.3038,-1264.76 1449.8267,-1254.4699 1441.4374,-1260.9407 1447.3038,-1264.76"/>
</g>
<!-- dec_block_s2_t1_tensor_in -->
<g id="node38" class="node">
<title>dec_block_s2_t1_tensor_in</title>
<polygon fill="none" stroke="#ff0000" points="1936.8673,-1532.4 1778.3145,-1532.4 1778.3145,-1496.4 1936.8673,-1496.4 1936.8673,-1532.4"/>
<text text-anchor="middle" x="1857.5909" y="-1510.2" font-family="Courier,monospace" font-size="14.00" fill="#000000">tensor_in NxCxHxW</text>
</g>
<!-- dec_block_s2_t1_skip1 -->
<g id="node39" class="node">
<title>dec_block_s2_t1_skip1</title>
<polygon fill="none" stroke="#ff0000" points="1816.5629,-1331.2 1632.6189,-1331.2 1632.6189,-1295.2 1816.5629,-1295.2 1816.5629,-1331.2"/>
<text text-anchor="middle" x="1724.5909" y="-1309" font-family="Courier,monospace" font-size="14.00" fill="#000000">deconv c=C/2 k=2 s=2</text>
</g>
<!-- dec_block_s2_t1_tensor_in&#45;&gt;dec_block_s2_t1_skip1 -->
<g id="edge40" class="edge">
<title>dec_block_s2_t1_tensor_in&#45;&gt;dec_block_s2_t1_skip1</title>
<path fill="none" stroke="#0000ff" d="M1828.8268,-1496.3494C1818.3611,-1488.7741 1807.0396,-1479.2828 1798.5909,-1468.8 1766.9167,-1429.5001 1744.8477,-1374.4064 1733.4828,-1341.4135"/>
<polygon fill="#0000ff" stroke="#0000ff" points="1736.6658,-1339.8964 1730.1704,-1331.5261 1730.0284,-1342.12 1736.6658,-1339.8964"/>
</g>
<!-- dec_block_s2_t1_conv1 -->
<g id="node40" class="node">
<title>dec_block_s2_t1_conv1</title>
<polygon fill="none" stroke="#ff0000" points="2126.5419,-1403.2 1816.6399,-1403.2 1816.6399,-1367.2 2126.5419,-1367.2 2126.5419,-1403.2"/>
<text text-anchor="middle" x="1971.5909" y="-1381" font-family="Courier,monospace" font-size="14.00" fill="#000000">deconv_bn_act c=C/2 k=2 s=2 a=swish</text>
</g>
<!-- dec_block_s2_t1_tensor_in&#45;&gt;dec_block_s2_t1_conv1 -->
<g id="edge41" class="edge">
<title>dec_block_s2_t1_tensor_in&#45;&gt;dec_block_s2_t1_conv1</title>
<path fill="none" stroke="#0000ff" d="M1873.6825,-1496.1628C1893.2876,-1473.9437 1926.5393,-1436.2585 1948.7787,-1411.0538"/>
<polygon fill="#0000ff" stroke="#0000ff" points="1951.5893,-1413.1585 1955.5811,-1403.3444 1946.3404,-1408.5271 1951.5893,-1413.1585"/>
</g>
<!-- dec_block_s2_t1_tensor_out -->
<g id="node42" class="node">
<title>dec_block_s2_t1_tensor_out</title>
<polygon fill="none" stroke="#ff0000" points="1979.1577,-1254.4 1762.0241,-1254.4 1762.0241,-1218.4 1979.1577,-1218.4 1979.1577,-1254.4"/>
<text text-anchor="middle" x="1870.5909" y="-1232.2" font-family="Courier,monospace" font-size="14.00" fill="#000000">tensor_out NxC/2xH*2xW*2</text>
</g>
<!-- dec_block_s2_t1_skip1&#45;&gt;dec_block_s2_t1_tensor_out -->
<g id="edge42" class="edge">
<title>dec_block_s2_t1_skip1&#45;&gt;dec_block_s2_t1_tensor_out</title>
<path fill="none" stroke="#0000ff" d="M1758.8214,-1295.1938C1779.2497,-1284.448 1805.3841,-1270.7006 1827.2443,-1259.2015"/>
<polygon fill="#0000ff" stroke="#0000ff" points="1829.1014,-1262.1794 1836.3222,-1254.4263 1825.8425,-1255.9842 1829.1014,-1262.1794"/>
</g>
<!-- dec_block_s2_t1_conv2 -->
<g id="node41" class="node">
<title>dec_block_s2_t1_conv2</title>
<polygon fill="none" stroke="#ff0000" points="2146.2447,-1331.2 1852.9371,-1331.2 1852.9371,-1295.2 2146.2447,-1295.2 2146.2447,-1331.2"/>
<text text-anchor="middle" x="1999.5909" y="-1309" font-family="Courier,monospace" font-size="14.00" fill="#000000">conv_bn_act c=C/2 k=3 s=1 a=swish</text>
</g>
<!-- dec_block_s2_t1_conv1&#45;&gt;dec_block_s2_t1_conv2 -->
<g id="edge43" class="edge">
<title>dec_block_s2_t1_conv1&#45;&gt;dec_block_s2_t1_conv2</title>
<path fill="none" stroke="#0000ff" d="M1978.6565,-1367.0314C1981.7169,-1359.1617 1985.3688,-1349.7712 1988.7591,-1341.0533"/>
<polygon fill="#0000ff" stroke="#0000ff" points="1992.0677,-1342.2019 1992.4302,-1331.6133 1985.5436,-1339.6647 1992.0677,-1342.2019"/>
</g>
<!-- dec_block_s2_t1_conv2&#45;&gt;dec_block_s2_t1_tensor_out -->
<g id="edge44" class="edge">
<title>dec_block_s2_t1_conv2&#45;&gt;dec_block_s2_t1_tensor_out</title>
<path fill="none" stroke="#0000ff" d="M1969.3461,-1295.1938C1951.6025,-1284.6302 1928.9867,-1271.1659 1909.8759,-1259.7883"/>
<polygon fill="#0000ff" stroke="#0000ff" points="1911.4761,-1256.6677 1901.0932,-1254.5595 1907.8952,-1262.6825 1911.4761,-1256.6677"/>
</g>
<!-- dec_block_s2_t2_tensor_in -->
<g id="node43" class="node">
<title>dec_block_s2_t2_tensor_in</title>
<polygon fill="none" stroke="#ff0000" points="2480.8673,-1532.4 2322.3145,-1532.4 2322.3145,-1496.4 2480.8673,-1496.4 2480.8673,-1532.4"/>
<text text-anchor="middle" x="2401.5909" y="-1510.2" font-family="Courier,monospace" font-size="14.00" fill="#000000">tensor_in NxCxHxW</text>
</g>
<!-- dec_block_s2_t2_skip1 -->
<g id="node44" class="node">
<title>dec_block_s2_t2_skip1</title>
<polygon fill="none" stroke="#ff0000" points="2351.2658,-1403.2 2183.916,-1403.2 2183.916,-1367.2 2351.2658,-1367.2 2351.2658,-1403.2"/>
<text text-anchor="middle" x="2267.5909" y="-1381" font-family="Courier,monospace" font-size="14.00" fill="#000000">conv c=C/2 k=3 s=1</text>
</g>
<!-- dec_block_s2_t2_tensor_in&#45;&gt;dec_block_s2_t2_skip1 -->
<g id="edge45" class="edge">
<title>dec_block_s2_t2_tensor_in&#45;&gt;dec_block_s2_t2_skip1</title>
<path fill="none" stroke="#0000ff" d="M2382.6762,-1496.1628C2359.4321,-1473.7513 2319.8683,-1435.6048 2293.7291,-1410.4019"/>
<polygon fill="#0000ff" stroke="#0000ff" points="2296.0376,-1407.7658 2286.4094,-1403.3444 2291.1789,-1412.805 2296.0376,-1407.7658"/>
</g>
<!-- dec_block_s2_t2_conv1 -->
<g id="node46" class="node">
<title>dec_block_s2_t2_conv1</title>
<polygon fill="none" stroke="#ff0000" points="2682.2447,-1403.2 2388.9371,-1403.2 2388.9371,-1367.2 2682.2447,-1367.2 2682.2447,-1403.2"/>
<text text-anchor="middle" x="2535.5909" y="-1381" font-family="Courier,monospace" font-size="14.00" fill="#000000">conv_bn_act c=C/2 k=3 s=1 a=swish</text>
</g>
<!-- dec_block_s2_t2_tensor_in&#45;&gt;dec_block_s2_t2_conv1 -->
<g id="edge46" class="edge">
<title>dec_block_s2_t2_tensor_in&#45;&gt;dec_block_s2_t2_conv1</title>
<path fill="none" stroke="#0000ff" d="M2420.5056,-1496.1628C2443.7497,-1473.7513 2483.3135,-1435.6048 2509.4527,-1410.4019"/>
<polygon fill="#0000ff" stroke="#0000ff" points="2512.0029,-1412.805 2516.7724,-1403.3444 2507.1442,-1407.7658 2512.0029,-1412.805"/>
</g>
<!-- dec_block_s2_t2_skip2 -->
<g id="node45" class="node">
<title>dec_block_s2_t2_skip2</title>
<polygon fill="none" stroke="#ff0000" points="2354.5629,-1254.4 2170.6189,-1254.4 2170.6189,-1218.4 2354.5629,-1218.4 2354.5629,-1254.4"/>
<text text-anchor="middle" x="2262.5909" y="-1232.2" font-family="Courier,monospace" font-size="14.00" fill="#000000">upsample bilinear 2x</text>
</g>
<!-- dec_block_s2_t2_skip1&#45;&gt;dec_block_s2_t2_skip2 -->
<g id="edge47" class="edge">
<title>dec_block_s2_t2_skip1&#45;&gt;dec_block_s2_t2_skip2</title>
<path fill="none" stroke="#0000ff" d="M2266.9778,-1366.9542C2266.1231,-1341.5191 2264.565,-1295.15 2263.5543,-1265.0709"/>
<polygon fill="#0000ff" stroke="#0000ff" points="2267.043,-1264.6718 2263.209,-1254.795 2260.0469,-1264.907 2267.043,-1264.6718"/>
</g>
<!-- dec_block_s2_t2_tensor_out -->
<g id="node49" class="node">
<title>dec_block_s2_t2_tensor_out</title>
<polygon fill="none" stroke="#ff0000" points="2517.1577,-1182.4 2300.0241,-1182.4 2300.0241,-1146.4 2517.1577,-1146.4 2517.1577,-1182.4"/>
<text text-anchor="middle" x="2408.5909" y="-1160.2" font-family="Courier,monospace" font-size="14.00" fill="#000000">tensor_out NxC/2xH*2xW*2</text>
</g>
<!-- dec_block_s2_t2_skip2&#45;&gt;dec_block_s2_t2_tensor_out -->
<g id="edge48" class="edge">
<title>dec_block_s2_t2_skip2&#45;&gt;dec_block_s2_t2_tensor_out</title>
<path fill="none" stroke="#0000ff" d="M2299.4329,-1218.2314C2318.6991,-1208.7302 2342.4608,-1197.0121 2362.8901,-1186.9374"/>
<polygon fill="#0000ff" stroke="#0000ff" points="2364.5932,-1190 2372.0139,-1182.438 2361.4971,-1183.7219 2364.5932,-1190"/>
</g>
<!-- dec_block_s2_t2_up1 -->
<g id="node47" class="node">
<title>dec_block_s2_t2_up1</title>
<polygon fill="none" stroke="#ff0000" points="2628.5629,-1331.2 2444.6189,-1331.2 2444.6189,-1295.2 2628.5629,-1295.2 2628.5629,-1331.2"/>
<text text-anchor="middle" x="2536.5909" y="-1309" font-family="Courier,monospace" font-size="14.00" fill="#000000">upsample bilinear 2x</text>
</g>
<!-- dec_block_s2_t2_conv1&#45;&gt;dec_block_s2_t2_up1 -->
<g id="edge49" class="edge">
<title>dec_block_s2_t2_conv1&#45;&gt;dec_block_s2_t2_up1</title>
<path fill="none" stroke="#0000ff" d="M2535.8432,-1367.0314C2535.9502,-1359.331 2536.0774,-1350.1743 2536.1962,-1341.6166"/>
<polygon fill="#0000ff" stroke="#0000ff" points="2539.6958,-1341.6609 2536.3352,-1331.6133 2532.6965,-1341.5637 2539.6958,-1341.6609"/>
</g>
<!-- dec_block_s2_t2_conv2 -->
<g id="node48" class="node">
<title>dec_block_s2_t2_conv2</title>
<polygon fill="none" stroke="#ff0000" points="2684.2447,-1254.4 2390.9371,-1254.4 2390.9371,-1218.4 2684.2447,-1218.4 2684.2447,-1254.4"/>
<text text-anchor="middle" x="2537.5909" y="-1232.2" font-family="Courier,monospace" font-size="14.00" fill="#000000">conv_bn_act c=C/2 k=3 s=1 a=swish</text>
</g>
<!-- dec_block_s2_t2_up1&#45;&gt;dec_block_s2_t2_conv2 -->
<g id="edge50" class="edge">
<title>dec_block_s2_t2_up1&#45;&gt;dec_block_s2_t2_conv2</title>
<path fill="none" stroke="#0000ff" d="M2536.8279,-1294.9995C2536.9462,-1285.9132 2537.092,-1274.7176 2537.2243,-1264.5549"/>
<polygon fill="#0000ff" stroke="#0000ff" points="2540.725,-1264.5146 2537.3556,-1254.4699 2533.7256,-1264.4234 2540.725,-1264.5146"/>
</g>
<!-- dec_block_s2_t2_conv2&#45;&gt;dec_block_s2_t2_tensor_out -->
<g id="edge51" class="edge">
<title>dec_block_s2_t2_conv2&#45;&gt;dec_block_s2_t2_tensor_out</title>
<path fill="none" stroke="#0000ff" d="M2505.0388,-1218.2314C2488.3861,-1208.9368 2467.9324,-1197.5208 2450.1524,-1187.5971"/>
<polygon fill="#0000ff" stroke="#0000ff" points="2451.5704,-1184.3803 2441.1326,-1182.5628 2448.1588,-1190.4927 2451.5704,-1184.3803"/>
</g>
</g>
</svg>